<?xml version="1.0" encoding="UTF-8" standalone="no"?>
<!-- Created with Inkscape (http://www.inkscape.org/) -->

<svg
   width="1280mm"
   height="640mm"
   viewBox="0 0 1280 639.99998"
   version="1.1"
   id="svg5"
   xml:space="preserve"
   inkscape:export-filename="../../../../../../Downloads/social.png"
   inkscape:export-xdpi="4.5000687"
   inkscape:export-ydpi="4.5000687"
   sodipodi:docname="social.svg"
   inkscape:version="1.1.2 (b8e25be8, 2022-02-05)"
   xmlns:inkscape="http://www.inkscape.org/namespaces/inkscape"
   xmlns:sodipodi="http://sodipodi.sourceforge.net/DTD/sodipodi-0.dtd"
   xmlns:xlink="http://www.w3.org/1999/xlink"
   xmlns="http://www.w3.org/2000/svg"
   xmlns:svg="http://www.w3.org/2000/svg"><sodipodi:namedview
     id="namedview7"
     pagecolor="#ffffff"
     bordercolor="#000000"
     borderopacity="0.25"
     inkscape:showpageshadow="2"
     inkscape:pageopacity="0.0"
     inkscape:pagecheckerboard="0"
     inkscape:deskcolor="#d1d1d1"
     inkscape:document-units="mm"
     showgrid="false"
     showguides="true"
     inkscape:lockguides="false"
     inkscape:zoom="0.13558052"
     inkscape:cx="1471.4503"
     inkscape:cy="973.59119"
     inkscape:window-width="1906"
     inkscape:window-height="866"
     inkscape:window-x="14"
     inkscape:window-y="25"
     inkscape:window-maximized="0"
     inkscape:current-layer="layer1"
     inkscape:pageshadow="2"
     fit-margin-top="0"
     fit-margin-left="0"
     fit-margin-right="0"
     fit-margin-bottom="0"><inkscape:grid
       type="xygrid"
       id="grid267"
       originx="0"
       originy="0" /></sodipodi:namedview><defs
     id="defs2"><inkscape:path-effect
       effect="fillet_chamfer"
       id="path-effect265"
       is_visible="true"
       lpeversion="1"
       nodesatellites_param="F,1,0,1,0,0.2,0,1 @ F,1,0,1,0,0.2,0,1 @ F,1,0,1,0,0.2,0,1 @ F,1,0,1,0,0.2,0,1"
       unit="px"
       method="auto"
       mode="F"
       radius="20"
       chamfer_steps="1"
       flexible="true"
       use_knot_distance="true"
       apply_no_radius="true"
       apply_with_radius="true"
       only_selected="false"
       hide_knots="false"
       satellites_param="F,1,0,1,0,20,0,1 @ F,1,0,1,0,20,0,1 @ F,1,0,1,0,20,0,1 @ F,1,0,1,0,20,0,1" /><linearGradient
       id="linearGradient1023"><stop
         style="stop-color:#cf3bff;stop-opacity:1;"
         offset="0.00923673"
         id="stop1019" /><stop
         style="stop-color:#4a26ff;stop-opacity:1;"
         offset="1"
         id="stop1021" /></linearGradient><linearGradient
       id="linearGradient1850"><stop
         style="stop-color:#cf3bff;stop-opacity:1;"
         offset="0"
         id="stop1846" /><stop
         style="stop-color:#4a26ff;stop-opacity:1;"
         offset="1"
         id="stop1848" /></linearGradient><linearGradient
       id="linearGradient14306"><stop
         style="stop-color:#cf3bff;stop-opacity:1;"
         offset="0.09324758"
         id="stop2381" /><stop
         style="stop-color:#4a26ff;stop-opacity:1;"
         offset="1"
         id="stop2383" /></linearGradient><inkscape:path-effect
       effect="fillet_chamfer"
       id="path-effect29803"
       is_visible="true"
       lpeversion="1"
       nodesatellites_param="F,1,0,1,0,0.2,0,1 @ F,1,0,1,0,0.2,0,1 @ F,1,0,1,0,0.2,0,1 @ F,1,0,1,0,0.2,0,1"
       unit="px"
       method="auto"
       mode="F"
       radius="20"
       chamfer_steps="1"
       flexible="true"
       use_knot_distance="true"
       apply_no_radius="true"
       apply_with_radius="true"
       only_selected="false"
       hide_knots="false"
       satellites_param="F,1,0,1,0,20,0,1 @ F,1,0,1,0,20,0,1 @ F,1,0,1,0,20,0,1 @ F,1,0,1,0,20,0,1" /><linearGradient
       inkscape:collect="always"
       xlink:href="#linearGradient14306"
       id="linearGradient14308"
       x1="11.496352"
       y1="238.02477"
       x2="189.70013"
       y2="59.131031"
       gradientUnits="userSpaceOnUse"
       gradientTransform="matrix(7.0867224,0,0,3.5375012,-57.969736,-147.72863)" /><linearGradient
       inkscape:collect="always"
       xlink:href="#linearGradient1023"
       id="linearGradient9477"
       gradientUnits="userSpaceOnUse"
       gradientTransform="matrix(1.1966176,0,0,1.1946361,-18.982225,-28.122148)"
       x1="66.801064"
       y1="195.45193"
       x2="137.29793"
       y2="115.39611" /></defs><g
     inkscape:label="logo"
     inkscape:groupmode="layer"
     id="layer1"
     transform="translate(-9.5239665,-58.218152)"
     style="display:inline"><path
       id="back"
       style="display:inline;mix-blend-mode:normal;fill:url(#linearGradient14308);fill-opacity:1;stroke-width:1.32683;stroke-dasharray:none"
       d="M 9.5239665,698.21815 H 1289.524 V 58.218152 H 9.5239665 Z"
       sodipodi:nodetypes="ccccc"
       inkscape:label="background"
       inkscape:path-effect="#path-effect29803"
       inkscape:original-d="M 9.5239665,58.218152 V 698.21815 H 1289.524 V 58.218152 Z" /><g
       id="g3650"
       transform="matrix(3.6106048,0,0,3.6106048,-59.23049,-95.553519)"><path
         style="display:inline;fill:#ffffff;fill-opacity:1;stroke:none;stroke-width:0.344917;stroke-dasharray:none;stroke-opacity:1;paint-order:fill markers stroke"
         d="M 52.730072,202.81168 C 45.89545,201.7359 40.097037,196.50656 38.248371,189.7513 c -0.543997,-1.98803 -0.602821,-4.36173 -0.608823,-24.56664 -0.0054,-22.11498 0.0019,-22.40091 0.773441,-25.42391 1.251107,-4.90335 2.377563,-6.67643 7.470314,-11.7586 2.476268,-2.47112 7.75941,-7.26349 11.74032,-10.64986 6.671694,-5.67505 9.774189,-8.36677 22.456193,-19.482971 4.801933,-4.209098 8.344307,-6.974552 11.557129,-9.022258 3.658314,-2.331592 9.738635,-2.832091 14.935735,-1.229446 3.37706,1.041323 9.28626,5.712088 28.42899,22.471555 20.90435,18.302 23.66512,21.02115 25.97707,25.58331 2.06884,4.08214 2.04267,3.74442 2.19997,28.35665 0.12742,19.89501 0.0774,22.84328 -0.4068,24.73599 -1.74935,6.81705 -6.64946,12.00897 -13.04673,13.82347 -1.713,0.48601 -93.977701,0.69806 -96.995108,0.22309 z"
         id="house-4"
         inkscape:label="house" /><path
         id="path1279"
         style="display:inline;fill:url(#linearGradient9477);fill-opacity:1;stroke-width:0.371366"
         d="m 88.844706,108.72131 c -3.077645,0 -5.572848,2.49125 -5.572848,5.5636 0,3.07277 2.495203,5.56306 5.572848,5.56306 0.86004,0 1.674557,-0.19414 2.402255,-0.54162 l 7.627645,7.6149 v 38.89151 L 85.501413,152.46055 v -10.67532 c 2.164135,-0.76401 3.714539,-2.82446 3.714539,-5.24642 0,-3.07277 -2.494862,-5.56419 -5.572161,-5.56419 -3.077645,0 -5.572849,2.49142 -5.572849,5.56419 0,2.42196 1.55109,4.48241 3.715245,5.24642 v 6.96611 L 71.384357,138.3668 v -10.30436 c 2.164498,-0.7637 3.715205,-2.82474 3.715205,-5.24737 0,-3.07278 -2.494862,-5.56306 -5.572164,-5.56306 -3.077649,0 -5.572847,2.49028 -5.572847,5.56306 0,2.42263 1.551091,4.48367 3.715245,5.24737 v 11.84044 l 11.489743,11.47139 h -6.605685 c -0.765238,-2.16074 -2.829461,-3.70881 -5.25599,-3.70881 -3.077298,0 -5.572168,2.49087 -5.572168,5.56361 0,3.07239 2.49487,5.56266 5.572168,5.56266 2.426529,0 4.490752,-1.54804 5.25599,-3.70881 h 10.320914 l 15.999838,15.97457 v 27.76524 l -8.54419,-8.53071 v -10.67588 c 2.164116,-0.76371 3.715206,-2.82449 3.715206,-5.24682 0,-3.07237 -2.495166,-5.56363 -5.572847,-5.56363 -3.077657,0 -5.572163,2.49126 -5.572163,5.56363 0,2.42233 1.55109,4.48311 3.715244,5.24682 v 6.96667 L 74.185033,174.17187 c 0.348269,-0.72648 0.542601,-1.54008 0.542601,-2.39907 0,-3.07239 -2.494471,-5.56266 -5.572167,-5.56266 -3.077299,0 -5.572162,2.49027 -5.572162,5.56266 0,3.07276 2.494863,5.5636 5.572162,5.5636 0.860385,0 1.674938,-0.19468 2.402256,-0.54217 l 12.43082,12.41095 h -6.605704 c -0.765228,-2.16117 -2.829154,-3.70864 -5.255305,-3.70864 -3.077682,0 -5.572171,2.49065 -5.572171,5.56304 0,3.07276 2.494489,5.56361 5.572171,5.56361 2.426151,0 4.490077,-1.54805 5.255305,-3.7092 h 10.320913 l 10.401147,10.3855 h 5.253851 l 10.77316,-10.75607 h 9.94971 c 0.76478,2.16115 2.82917,3.70863 5.25526,3.70863 3.07782,0 5.57232,-2.49055 5.57232,-5.56304 0,-3.07276 -2.4945,-5.56361 -5.57232,-5.56361 -2.42609,0 -4.49048,1.54834 -5.25526,3.7092 H 112.5933 l -10.00357,9.98813 v -12.18709 l 11.91423,-11.89536 h 19.2362 c 0.76547,2.16076 2.82885,3.70882 5.25526,3.70882 3.0775,0 5.57289,-2.49029 5.57289,-5.56305 0,-3.07237 -2.49539,-5.56362 -5.57289,-5.56362 -2.42641,0 -4.48979,1.54845 -5.25526,3.70921 h -15.52164 l 11.11836,-11.10081 v -9.27187 l 7.9989,-7.98699 c 0.72786,0.34748 1.54258,0.54314 2.40317,0.54314 3.07711,0 5.57193,-2.49181 5.57193,-5.56457 0,-3.07239 -2.49482,-5.56266 -5.57193,-5.56266 -3.07782,0 -5.57289,2.49027 -5.57289,5.56266 0,0.85899 0.19553,1.67292 0.54389,2.39906 l -5.37307,5.36407 v -16.98064 c 2.16424,-0.76402 3.71513,-2.8245 3.71513,-5.24682 0,-3.07239 -2.49507,-5.56362 -5.5725,-5.56362 -3.07749,0 -5.57231,2.49123 -5.57231,5.56362 0,2.42232 1.55058,4.4828 3.71513,5.24682 v 16.98064 l -5.37307,-5.36407 c 0.34836,-0.72614 0.54332,-1.54007 0.54332,-2.39906 0,-3.07239 -2.49451,-5.56266 -5.57193,-5.56266 -3.0778,0 -5.57232,2.49027 -5.57232,5.56266 0,3.07276 2.49452,5.56457 5.57232,5.56457 0.8602,0 1.67468,-0.19566 2.40222,-0.54314 l 7.99946,7.98699 v 7.73577 l -10.03059,10.01398 v -7.33726 c 2.16423,-0.76371 3.71455,-2.82415 3.71455,-5.24681 0,-3.07238 -2.49481,-5.56362 -5.57192,-5.56362 -3.07782,0 -5.57231,2.49124 -5.57231,5.56362 0,2.42266 1.55089,4.4831 3.71512,5.24681 v 11.04647 l -9.28745,9.27185 v -54.46852 l 7.6278,-7.6149 c 0.72717,0.34748 1.54202,0.54162 2.40222,0.54162 3.07781,0 5.57232,-2.49029 5.57232,-5.56306 0,-3.07235 -2.49451,-5.5636 -5.57232,-5.5636 -3.07709,0 -5.57232,2.49125 -5.57232,5.5636 0,0.859 0.19535,1.67166 0.54332,2.39851 l -6.85839,6.84694 -6.858088,-6.84694 c 0.347882,-0.72685 0.542596,-1.53951 0.542596,-2.39851 0,-3.07235 -2.494863,-5.5636 -5.572162,-5.5636 z m 0,3.33766 c 1.23092,0 2.228888,0.99698 2.228888,2.22594 0,1.22929 -0.997968,2.22539 -2.228888,2.22539 -1.231264,0 -2.22885,-0.9961 -2.22885,-2.22539 0,-1.22896 0.997586,-2.22594 2.22885,-2.22594 z m 23.775044,0 c 1.23108,0 2.22885,0.99698 2.22885,2.22594 0,1.22929 -0.99777,2.22539 -2.22885,2.22539 -1.23108,0 -2.22885,-0.9961 -2.22885,-2.22539 0,-1.22896 0.99777,-2.22594 2.22885,-2.22594 z m -43.092352,8.53071 c 1.23092,0 2.22889,0.9964 2.22889,2.22539 0,1.22926 -0.99797,2.22594 -2.22889,2.22594 -1.231269,0 -2.229534,-0.99668 -2.229534,-2.22594 0,-1.22899 0.998265,-2.22539 2.229534,-2.22539 z m 57.952112,0.37098 c 1.23101,0 2.22942,0.99625 2.22942,2.22555 0,1.22897 -0.99841,2.22537 -2.22942,2.22537 -1.23107,0 -2.22923,-0.9964 -2.22923,-2.22537 0,-1.2293 0.99816,-2.22555 2.22923,-2.22555 z m -43.835719,13.3522 c 1.23092,0 2.228887,0.99666 2.228887,2.22595 0,1.22897 -0.997967,2.22497 -2.228887,2.22497 -1.230922,0 -2.229536,-0.996 -2.229536,-2.22497 0,-1.22929 0.998614,-2.22595 2.229536,-2.22595 z m 31.576859,1.11269 c 1.23069,0 2.22885,0.99639 2.22885,2.22499 0,1.22928 -0.99816,2.22593 -2.22885,2.22593 -1.23107,0 -2.22885,-0.99665 -2.22885,-2.22593 0,-1.2286 0.99778,-2.22499 2.22885,-2.22499 z m 24.5183,0 c 1.23069,0 2.22884,0.99639 2.22884,2.22499 0,1.22928 -0.99815,2.22593 -2.22884,2.22593 -1.2314,0 -2.22924,-0.99665 -2.22924,-2.22593 0,-1.2286 0.99784,-2.22499 2.22924,-2.22499 z m -72.441086,15.57758 c 1.23129,0 2.229534,0.99698 2.229534,2.22594 0,1.22859 -0.998244,2.22499 -2.229534,2.22499 -1.23092,0 -2.228881,-0.9964 -2.228881,-2.22499 0,-1.22896 0.997961,-2.22594 2.228881,-2.22594 z m 46.436506,2.59652 c 1.23069,0 2.22885,0.99639 2.22885,2.22499 0,1.22929 -0.99816,2.22593 -2.22885,2.22593 -1.23108,0 -2.22924,-0.99664 -2.22924,-2.22593 0,-1.2286 0.99816,-2.22499 2.22924,-2.22499 z m -44.578903,15.94816 c 1.23092,0 2.22889,0.99639 2.22889,2.22499 0,1.22928 -0.99797,2.22593 -2.22889,2.22593 -1.23092,0 -2.228848,-0.99665 -2.228848,-2.22593 0,-1.2286 0.997928,-2.22499 2.228848,-2.22499 z m 69.839953,1.11326 c 1.23108,0 2.22885,0.99639 2.22885,2.22498 0,1.22928 -0.99777,2.22538 -2.22885,2.22538 -1.23101,0 -2.22885,-0.9961 -2.22885,-2.22538 0,-1.22859 0.99784,-2.22498 2.22885,-2.22498 z m -50.522645,1.48326 c 1.230919,0 2.228887,0.99569 2.228887,2.22499 0,1.22896 -0.997968,2.22537 -2.228887,2.22537 -1.23092,0 -2.22885,-0.99641 -2.22885,-2.22537 0,-1.2293 0.99793,-2.22499 2.22885,-2.22499 z m 40.864105,16.3193 c 1.23108,0 2.22885,0.99639 2.22885,2.22538 0,1.2293 -0.99777,2.22498 -2.22885,2.22498 -1.23069,0 -2.22884,-0.99568 -2.22884,-2.22498 0,-1.22899 0.99815,-2.22538 2.22884,-2.22538 z m -57.209346,0.37097 c 1.230919,0 2.228849,0.996 2.228849,2.22498 0,1.22899 -0.99793,2.22595 -2.228849,2.22595 -1.231303,0 -2.228888,-0.99696 -2.228888,-2.22595 0,-1.22898 0.997585,-2.22498 2.228888,-2.22498 z"
         inkscape:label="tree" /></g><text
       xml:space="preserve"
       style="font-style:normal;font-variant:normal;font-weight:normal;font-stretch:normal;font-size:88.1944px;line-height:1.25;font-family:Roboto;-inkscape-font-specification:Roboto;opacity:0.640777;fill:#000000;fill-opacity:1;stroke:none;stroke-width:0.264583"
       x="526.66748"
       y="198.72507"
       id="text4798"
       inkscape:label="YSH"><tspan
         sodipodi:role="line"
         id="tspan4796"
         style="font-style:normal;font-variant:normal;font-weight:300;font-stretch:normal;font-size:77.6111px;font-family:Roboto;-inkscape-font-specification:'Roboto Light';fill:#ffffff;stroke-width:0.264583"
         x="526.66748"
         y="198.72507">Yandex Smart Home</tspan><tspan
         sodipodi:role="line"
         style="font-style:normal;font-variant:normal;font-weight:normal;font-stretch:normal;font-size:88.1944px;font-family:Roboto;-inkscape-font-specification:Roboto;stroke-width:0.264583"
         x="526.66748"
         y="308.96808"
         id="tspan4800" /><tspan
         sodipodi:role="line"
         style="font-style:normal;font-variant:normal;font-weight:normal;font-stretch:normal;font-size:88.1944px;font-family:Roboto;-inkscape-font-specification:Roboto;stroke-width:0.264583"
         x="526.66748"
         y="419.21106"
         id="tspan7507" /></text><text
       xml:space="preserve"
       style="font-size:10.5833px;line-height:1.25;font-family:Robot;-inkscape-font-specification:Robot;stroke-width:0.264583"
       x="774.50598"
       y="-10.083815"
       id="text13313"><tspan
         sodipodi:role="line"
         id="tspan13311"
         style="stroke-width:0.264583"
         x="774.50598"
         y="-10.083815"> </tspan></text></g></svg>
